<svg width="28" height="28" viewBox="0 0 28 28" fill="none" xmlns="http://www.w3.org/2000/svg">
<path d="M8.29609 0.915039C8.29609 0.915039 7.16953 1.68723 7.09297 2.29207C7.01641 2.91168 8.05547 3.34426 7.94609 3.95895C7.875 4.36527 7.03828 4.80004 7.03828 4.80004C7.03828 4.80004 9.15469 4.61629 9.35156 3.79926C9.51016 3.15285 8.26875 2.8909 8.09375 2.24887C7.97891 1.81465 8.29609 0.915039 8.29609 0.915039ZM20.0211 1.18246C20.0211 1.18246 18.6648 1.92512 18.6594 2.57426C18.6539 2.9702 19.4469 3.0484 19.4688 3.44379C19.4961 3.91191 18.632 4.57473 18.632 4.57473C18.632 4.57473 20.4695 4.36637 20.7156 3.64668C20.8633 3.22176 20.2016 2.89145 20.0813 2.45832C19.9664 2.04816 20.0211 1.18246 20.0211 1.18246ZM14.175 1.19668C14.175 1.19668 12.7039 1.94863 12.8133 2.58848C12.8898 3.02215 13.9398 2.73176 14 3.16816C14.093 3.87965 12.3812 4.58895 12.3812 4.58895C12.3812 4.58895 15.4711 4.5102 15.5969 3.37105C15.657 2.83074 14.5031 2.94504 14.2352 2.47254C14.0219 2.1023 14.175 1.19668 14.175 1.19668ZM2.625 5.77512V6.75949H25.375V5.77512H2.625ZM3.5 7.79856C2.70813 12.5509 4.42422 15.3509 6.70469 16.997C6.50781 15.6407 5.93359 14.3118 4.78734 13.0486C6.97266 13.6228 8.68984 15.7173 9.45547 17.8173C9.58125 16.7892 9.58125 16.3134 10.5219 15.4001C10.3523 16.7564 11.1344 16.8493 11.6813 16.6798C13.0648 16.2478 13.6281 14.5196 12.2609 12.365C14.8641 13.6064 14.9023 15.0118 15.3398 16.9423C15.2086 15.1267 16.6688 14.3993 17.7297 15.0829C15.2633 16.3243 17.2812 17.3907 18.107 17.6532C20.2945 18.3532 21.9352 15.1212 22.8758 12.6767C23.1328 13.7595 22.9195 14.8478 22.5203 15.9306C24.1391 14.2189 25.1398 11.6486 24.5 7.79856H3.5ZM13.5789 17.3798L4.10156 22.8321C4.24922 23.8384 4.59375 24.7134 5.12969 25.4845L10.1609 23.0728L5.85703 26.3486C6.04297 26.5345 6.24531 26.7095 6.45859 26.879L10.5438 24.5329C10.5438 24.4946 10.5383 24.4509 10.5383 24.4126C10.5383 22.3782 12.2063 20.7157 14.2461 20.7157C14.8258 20.7157 15.3727 20.847 15.8594 21.0821C15.7281 20.3493 15.4602 19.6001 15.05 18.9384L9.86016 21.1314L14.3719 18.0415C14.1312 17.7954 13.8688 17.5712 13.5789 17.3798ZM16.8 20.5298C16.8875 20.9236 16.9422 21.3173 16.9641 21.7001L16.975 21.9134C17.582 22.5696 17.9539 23.4501 17.9539 24.4126C17.9539 24.8392 17.8828 25.2493 17.7461 25.6267L22.7445 26.9611C22.9961 26.6165 23.2148 26.2611 23.3898 25.9001L19.9391 24.5493L23.7727 24.9267C23.8219 24.7626 23.8602 24.604 23.893 24.44L18.5828 22.5642L24.0078 23.4118C24.0187 23.0946 24.0023 22.772 23.9641 22.4439L16.8 20.5298ZM14.2461 21.7384C12.7586 21.7384 11.5609 22.9306 11.5609 24.4126C11.5609 25.8946 12.7586 27.0868 14.2461 27.0868C15.7391 27.0868 16.9367 25.8946 16.9367 24.4126C16.9367 22.9306 15.7391 21.7384 14.2461 21.7384ZM13.9781 22.3837C16.3734 22.3837 17.1719 26.2993 13.9781 26.2993C15.4328 25.0361 15.6078 23.7345 13.9781 22.3837ZM13.9891 22.9196C12.8078 23.8986 12.9336 24.8446 13.9891 25.7634C11.6703 25.7634 12.25 22.9196 13.9891 22.9196Z" fill="#209D01"/>
</svg>
