<svg width="20" height="20" viewBox="0 0 20 20" fill="none" xmlns="http://www.w3.org/2000/svg">
<path d="M13.8174 4.96101C14.2031 4.86045 14.5929 4.7762 14.9857 4.70851C15.2293 4.66705 15.4792 4.6844 15.7147 4.75912C15.9502 4.83385 16.1644 4.96378 16.3395 5.1381C17.212 6.00018 18.7507 7.98309 18.7507 11.2498C18.7507 14.3427 18.6149 16.2131 18.4982 17.2485C18.4236 17.911 17.9078 18.3973 17.2441 18.4618C15.9899 18.5843 13.6232 18.7493 9.99572 18.7493C6.37072 18.7493 4.00906 18.5843 2.75656 18.4618C2.09364 18.3973 1.57781 17.9114 1.50322 17.2493C1.39364 16.2752 1.26656 14.5614 1.25197 11.7843C1.25031 11.4373 1.35156 11.0952 1.58822 10.841C2.97281 9.35809 6.14114 7.73184 9.18281 6.51601" stroke="white" stroke-width="1.5" stroke-linecap="round" stroke-linejoin="round"/>
<path d="M14.168 6.25C14.168 6.5783 14.1033 6.90339 13.9777 7.20671C13.852 7.51002 13.6679 7.78562 13.4357 8.01777C13.2036 8.24991 12.928 8.43406 12.6247 8.5597C12.3214 8.68534 11.9963 8.75 11.668 8.75C11.3397 8.75 11.0146 8.68534 10.7113 8.5597C10.4079 8.43406 10.1323 8.24991 9.9002 8.01777C9.66806 7.78562 9.48391 7.51002 9.35827 7.20671C9.23263 6.90339 9.16797 6.5783 9.16797 6.25C9.16797 5.58696 9.43136 4.95107 9.9002 4.48223C10.369 4.01339 11.0049 3.75 11.668 3.75C12.331 3.75 12.9669 4.01339 13.4357 4.48223C13.9046 4.95107 14.168 5.58696 14.168 6.25Z" stroke="white" stroke-width="1.5" stroke-linecap="round" stroke-linejoin="round"/>
<path d="M11.668 3.75C11.668 2.36917 10.6471 1.25 9.16797 1.25M18.3346 15H1.66797M18.7513 11.25H1.66797" stroke="white" stroke-width="1.5" stroke-linecap="round" stroke-linejoin="round"/>
</svg>
