<svg width="24" height="24" viewBox="0 0 24 24" fill="none" xmlns="http://www.w3.org/2000/svg">
<path d="M11.9522 1.0459C10.9584 1.0459 10.0538 1.55121 9.585 2.34105L9.37875 2.68887L9.0225 2.49762C8.68969 2.31715 8.31 2.22152 7.93031 2.22152C6.60375 2.22152 5.52563 3.32637 5.52563 4.71574C5.52563 5.95793 6.3975 6.99387 7.56469 7.18137L7.92094 7.23762V9.74074C10.635 9.22043 13.3584 9.19699 16.0772 9.74074V6.47356L16.3022 6.35168C17.0381 5.96262 17.5256 5.12824 17.5256 4.1884C17.5256 2.8384 16.5553 1.79215 15.3975 1.79215C15.0928 1.79215 14.7881 1.86762 14.5116 2.0134L14.2209 2.1634L14.0053 1.9248C13.4991 1.37309 12.7491 1.0459 11.9522 1.0459ZM11.9991 10.1767C10.7991 10.1767 9.60375 10.2892 8.40375 10.5048C8.36156 10.7861 8.34281 11.0767 8.34281 11.3767C8.34281 12.7361 8.77406 13.9642 9.44906 14.8314C10.1241 15.6986 11.0194 16.2048 11.9991 16.2048C12.9788 16.2048 13.8741 15.6986 14.5491 14.8314C15.2241 13.9642 15.6553 12.7361 15.6553 11.3767C15.6553 11.0767 15.6319 10.7814 15.5944 10.5001C14.3944 10.2798 13.1991 10.172 11.9991 10.1767ZM9.78188 16.3126L5.60063 17.7048L4.28906 22.9548H15.0741L14.3944 18.1876L15.2288 18.0657L15.9272 22.9548H19.71L18.3975 17.7048L14.2162 16.3126C13.5694 16.7767 12.81 17.0486 11.9991 17.0486C11.1881 17.0486 10.4288 16.7767 9.78188 16.3126ZM13.0303 18.7829C13.1546 18.7829 13.2739 18.8323 13.3618 18.9202C13.4497 19.0081 13.4991 19.1274 13.4991 19.2517C13.4991 19.376 13.4497 19.4952 13.3618 19.5831C13.2739 19.671 13.1546 19.7204 13.0303 19.7204C12.906 19.7204 12.7868 19.671 12.6989 19.5831C12.6109 19.4952 12.5616 19.376 12.5616 19.2517C12.5616 19.1274 12.6109 19.0081 12.6989 18.9202C12.7868 18.8323 12.906 18.7829 13.0303 18.7829ZM13.3584 20.9392C13.4828 20.9392 13.602 20.9886 13.6899 21.0765C13.7778 21.1644 13.8272 21.2836 13.8272 21.4079C13.8272 21.5323 13.7778 21.6515 13.6899 21.7394C13.602 21.8273 13.4828 21.8767 13.3584 21.8767C13.2341 21.8767 13.1149 21.8273 13.027 21.7394C12.9391 21.6515 12.8897 21.5323 12.8897 21.4079C12.8897 21.2836 12.9391 21.1644 13.027 21.0765C13.1149 20.9886 13.2341 20.9392 13.3584 20.9392Z" fill="#209D01"/>
</svg>
