<svg width="15" height="15" viewBox="0 0 15 15" fill="none" xmlns="http://www.w3.org/2000/svg">
<path d="M10.377 3.1333C11.0034 3.1333 11.5165 3.6465 11.5166 4.27295V6.28857L8.7998 9.68604H6.02246V9.76709C6.0224 10.7354 5.24078 11.5171 4.27246 11.5171C3.30432 11.5169 2.5235 10.7353 2.52344 9.76709V9.68604H1.30176V7.93604C1.30176 6.63204 2.35815 5.57585 3.66211 5.57568H6.02246V8.62744H8.29199L8.31641 8.59717L10.4404 5.94189L10.459 5.91943V4.19189H8.62695V3.1333H10.377ZM3.58105 9.76709C3.58112 10.1476 3.89199 10.4583 4.27246 10.4585C4.65311 10.4585 4.96478 10.1477 4.96484 9.76709V9.68604H3.58105V9.76709ZM3.66211 6.6333C2.94583 6.63347 2.36035 7.21972 2.36035 7.93604V8.62744H4.96484V6.6333H3.66211Z" fill="#222222" stroke="white" stroke-width="0.162781"/>
<path d="M11.5986 8.01709C12.567 8.01709 13.3486 8.79873 13.3486 9.76709C13.3485 10.7354 12.5669 11.5171 11.5986 11.5171C10.6304 11.517 9.84874 10.7353 9.84863 9.76709C9.84863 8.79877 10.6303 8.01715 11.5986 8.01709ZM11.5986 9.07471C11.218 9.07477 10.9072 9.38644 10.9072 9.76709C10.9073 10.1476 11.2181 10.4584 11.5986 10.4585C11.9793 10.4585 12.2909 10.1477 12.291 9.76709C12.291 9.3864 11.9793 9.07471 11.5986 9.07471ZM6.02344 3.74365V4.80225H3.13379V3.74365H6.02344Z" fill="#222222" stroke="white" stroke-width="0.162781"/>
</svg>
