<svg width="28" height="28" viewBox="0 0 28 28" fill="none" xmlns="http://www.w3.org/2000/svg">
<path d="M22.3703 2.12891H5.62891C3.70391 2.12891 2.12891 3.70391 2.12891 5.62891V22.372C2.12891 24.297 3.70391 25.872 5.62891 25.872H22.372C24.297 25.872 25.872 24.297 25.872 22.372V5.62891C25.8703 3.70391 24.297 2.12891 22.3703 2.12891ZM22.1454 14.8015H19.3279V24.9953H15.1122V14.8015H13.0034V11.2875H15.1122V9.17878C15.1122 6.31228 16.3022 4.60691 19.6884 4.60691H22.5033V8.12003H20.7428C19.4268 8.12003 19.3393 8.61266 19.3393 9.52878L19.3279 11.2875H22.5173L22.1454 14.8015Z" fill="black"/>
</svg>
