<svg width="20" height="20" viewBox="0 0 20 20" fill="none" xmlns="http://www.w3.org/2000/svg">
<path d="M1.66602 14.167H18.3327" stroke="white" stroke-width="1.5" stroke-linecap="round"/>
<path d="M10 5.83354C10 5.83354 11.25 4.97188 11.25 3.90938C11.25 2.03021 8.75 2.03021 8.75 3.90938C8.75 4.97188 10 5.83354 10 5.83354Z" stroke="white" stroke-width="1.5" stroke-linejoin="round"/>
<path d="M2.5 14.1673L3.0175 16.2382C3.10763 16.5987 3.31569 16.9188 3.60861 17.1476C3.90153 17.3763 4.26251 17.5006 4.63417 17.5007H15.365C15.7367 17.5006 16.0976 17.3763 16.3906 17.1476C16.6835 16.9188 16.8915 16.5987 16.9817 16.2382L17.5 14.1673M17.0833 12.084C16.6683 8.56482 13.655 5.83398 10 5.83398C6.345 5.83398 3.33167 8.56482 2.91667 12.084" stroke="white" stroke-width="1.5" stroke-linecap="round"/>
</svg>
