<svg width="18" height="27" viewBox="0 0 18 27" fill="none" xmlns="http://www.w3.org/2000/svg">
<circle cx="10.3711" cy="22.4356" r="0.0390958" fill="#D9D9D9"/>
<path d="M15.7729 8.91088C15.7729 13.2665 12.242 16.7973 7.88647 16.7973C3.53089 16.7973 0 13.2665 0 8.91088C0 4.55531 3.53089 1.02441 7.88647 1.02441C12.242 1.02441 15.7729 4.55531 15.7729 8.91088ZM3.72571 8.91088C3.72571 11.2088 5.58854 13.0716 7.88647 13.0716C10.1844 13.0716 12.0472 11.2088 12.0472 8.91088C12.0472 6.61296 10.1844 4.75012 7.88647 4.75012C5.58854 4.75012 3.72571 6.61296 3.72571 8.91088Z" fill="#209D01"/>
<path d="M15.7729 18.1374C15.7729 20.2291 14.942 22.235 13.463 23.714C11.984 25.193 9.97809 26.0239 7.88647 26.0239C5.79485 26.0239 3.78889 25.193 2.30989 23.714C0.830894 22.235 3.15826e-07 20.2291 0 18.1374L7.88647 18.1374H15.7729Z" fill="#209D01"/>
<g clip-path="url(#clip0_16022_59562)">
<path d="M15.7383 0.44043C16.6559 0.449334 17.4638 1.70923 16.1692 2.00829C13.9139 2.52954 12.1547 3.87827 10.7843 5.98497C10.6062 6.33898 10.4715 6.69082 10.5389 7.04484C10.6344 7.39016 10.654 7.73983 10.6084 8.04172C10.5193 8.58468 10.25 9.17543 9.78741 9.6793C9.32698 10.1832 8.76881 10.5003 8.2367 10.6349C7.7046 10.7674 7.17249 10.7283 6.81631 10.4025C6.45795 10.0746 6.41234 9.57288 6.53614 9.06249C6.65993 8.55211 6.97051 8.00263 7.4266 7.50527C7.88269 7.00574 8.40176 6.64739 8.89912 6.47798C9.07721 6.41717 9.25748 6.37808 9.42905 6.36939C9.72443 6.24994 9.94161 5.998 10.1371 5.70697C11.3446 3.35919 13.1386 1.82456 15.2301 0.578343C15.3956 0.496029 15.5806 0.44043 15.7383 0.44043ZM10.1957 7.29243C9.66144 8.63464 8.60375 9.69885 7.42443 10.2787C7.60686 10.3113 7.83491 10.3026 8.0825 10.2418C8.53859 10.1267 9.04898 9.84436 9.46815 9.38827C9.88732 8.93001 10.1349 8.38053 10.2109 7.91358C10.2326 7.70291 10.2392 7.47704 10.1957 7.29243Z" fill="#209D01"/>
</g>
<defs>
<clipPath id="clip0_16022_59562">
<rect width="11.1199" height="11.1199" fill="white" transform="matrix(-1 0 0 1 17.1914 0)"/>
</clipPath>
</defs>
</svg>
