<svg width="28" height="28" viewBox="0 0 28 28" fill="none" xmlns="http://www.w3.org/2000/svg">
<path fill-rule="evenodd" clip-rule="evenodd" d="M6.77831 1.57422C5.39741 1.57422 4.07304 2.12264 3.09641 3.0989C2.11978 4.07516 1.57084 5.39932 1.57031 6.78022V20.6682C1.57031 22.0495 2.11901 23.3741 3.0957 24.3508C4.07239 25.3275 5.39707 25.8762 6.77831 25.8762H20.6663C22.0472 25.8757 23.3714 25.3268 24.3476 24.3501C25.3239 23.3735 25.8723 22.0491 25.8723 20.6682V6.78022C25.8718 5.39966 25.3231 4.07581 24.3469 3.09961C23.3707 2.12341 22.0469 1.57475 20.6663 1.57422H6.77831ZM22.1643 6.78822C22.1643 7.18604 22.0063 7.56757 21.725 7.84888C21.4437 8.13018 21.0621 8.28822 20.6643 8.28822C20.2665 8.28822 19.885 8.13018 19.6037 7.84888C19.3223 7.56757 19.1643 7.18604 19.1643 6.78822C19.1643 6.39039 19.3223 6.00886 19.6037 5.72756C19.885 5.44625 20.2665 5.28822 20.6643 5.28822C21.0621 5.28822 21.4437 5.44625 21.725 5.72756C22.0063 6.00886 22.1643 6.39039 22.1643 6.78822ZM13.7243 9.56422C12.621 9.56422 11.5629 10.0025 10.7827 10.7827C10.0026 11.5628 9.56431 12.6209 9.56431 13.7242C9.56431 14.8275 10.0026 15.8856 10.7827 16.6658C11.5629 17.4459 12.621 17.8842 13.7243 17.8842C14.8276 17.8842 15.8857 17.4459 16.6659 16.6658C17.446 15.8856 17.8843 14.8275 17.8843 13.7242C17.8843 12.6209 17.446 11.5628 16.6659 10.7827C15.8857 10.0025 14.8276 9.56422 13.7243 9.56422ZM7.56231 13.7242C7.56231 12.0905 8.21131 10.5237 9.36653 9.36844C10.5218 8.21322 12.0886 7.56422 13.7223 7.56422C15.356 7.56422 16.9229 8.21322 18.0781 9.36844C19.2333 10.5237 19.8823 12.0905 19.8823 13.7242C19.8823 15.358 19.2333 16.9248 18.0781 18.08C16.9229 19.2352 15.356 19.8842 13.7223 19.8842C12.0886 19.8842 10.5218 19.2352 9.36653 18.08C8.21131 16.9248 7.56231 15.358 7.56231 13.7242Z" fill="black"/>
</svg>
