<svg width="20" height="20" viewBox="0 0 20 20" fill="none" xmlns="http://www.w3.org/2000/svg">
<path d="M18.3327 11.667H11.666V18.3337H18.3327V11.667ZM5.41602 1.66699L9.16602 8.33366H1.66602L5.41602 1.66699ZM14.9993 8.33366C15.8834 8.33366 16.7312 7.98247 17.3564 7.35735C17.9815 6.73223 18.3327 5.88438 18.3327 5.00033C18.3327 4.11627 17.9815 3.26842 17.3564 2.6433C16.7312 2.01818 15.8834 1.66699 14.9993 1.66699C14.1153 1.66699 13.2674 2.01818 12.6423 2.6433C12.0172 3.26842 11.666 4.11627 11.666 5.00033C11.666 5.88438 12.0172 6.73223 12.6423 7.35735C13.2674 7.98247 14.1153 8.33366 14.9993 8.33366Z" stroke="white" stroke-width="2" stroke-linejoin="round"/>
<path d="M1.66602 11.667L8.33268 18.3337M8.33268 11.667L1.66602 18.3337" stroke="white" stroke-width="2" stroke-linecap="round" stroke-linejoin="round"/>
</svg>
