<svg width="15" height="15" viewBox="0 0 15 15" fill="none" xmlns="http://www.w3.org/2000/svg">
<path d="M3.44095 2.6553C5.58617 0.510081 9.06562 0.510081 11.2108 2.6553C13.3561 4.80053 13.3561 8.27998 11.2108 10.4252C11.2088 10.4266 11.207 10.4283 11.2056 10.4304L8.32264 13.2009C8.05452 13.4582 7.69727 13.6017 7.32569 13.6015C6.9541 13.6013 6.597 13.4574 6.32915 13.1999L3.44618 10.4304L3.44095 10.4252C1.29573 8.27998 1.29573 4.80053 3.44095 2.6553ZM10.6552 3.20992C9.77192 2.32687 8.57405 1.83086 7.32508 1.83101C6.07611 1.83116 4.87836 2.32745 3.99531 3.21071C3.11226 4.09397 2.61625 5.29184 2.61639 6.54081C2.61654 7.78977 3.11283 8.98753 3.99609 9.87058L6.87331 12.6348C6.9951 12.7517 7.15736 12.8169 7.32616 12.8169C7.49496 12.8169 7.65722 12.7517 7.77901 12.6348L10.6573 9.86744C11.5393 8.98415 12.0346 7.78679 12.0342 6.53851C12.0338 5.29023 11.5378 4.09265 10.6552 3.20992ZM7.3259 4.18574C7.95035 4.18574 8.54923 4.4338 8.99079 4.87536C9.43235 5.31692 9.68041 5.9158 9.68041 6.54025C9.68041 7.16471 9.43235 7.76359 8.99079 8.20514C8.54923 8.6467 7.95035 8.89477 7.3259 8.89477C6.70144 8.89477 6.10256 8.6467 5.661 8.20514C5.21945 7.76359 4.97138 7.16471 4.97138 6.54025C4.97138 5.9158 5.21945 5.31692 5.661 4.87536C6.10256 4.4338 6.70144 4.18574 7.3259 4.18574ZM7.3259 4.97058C7.11976 4.97058 6.91565 5.01118 6.72521 5.09006C6.53477 5.16894 6.36173 5.28457 6.21597 5.43032C6.07021 5.57608 5.95459 5.74912 5.8757 5.93956C5.79682 6.13 5.75622 6.33412 5.75622 6.54025C5.75622 6.74638 5.79682 6.9505 5.8757 7.14094C5.95459 7.33138 6.07021 7.50442 6.21597 7.65018C6.36173 7.79594 6.53477 7.91156 6.72521 7.99044C6.91565 8.06933 7.11976 8.10993 7.3259 8.10993C7.7422 8.10993 8.14145 7.94455 8.43582 7.65018C8.7302 7.35581 8.89557 6.95656 8.89557 6.54025C8.89557 6.12395 8.7302 5.72469 8.43582 5.43032C8.14145 5.13595 7.7422 4.97058 7.3259 4.97058Z" fill="#222222"/>
</svg>
