<svg width="18" height="18" viewBox="0 0 18 18" fill="none" xmlns="http://www.w3.org/2000/svg">
<path d="M4.54529 3.64526C5.13031 3.06018 5.82484 2.59607 6.58924 2.27943C7.35363 1.96278 8.17291 1.7998 9.00029 1.7998C9.82767 1.7998 10.647 1.96278 11.4113 2.27943C12.1757 2.59607 12.8703 3.06018 13.4553 3.64526C14.637 4.82764 15.3008 6.43087 15.3008 8.10251C15.3008 9.77415 14.637 11.3774 13.4553 12.5598L12.4401 13.5624L10.2486 15.6954C9.93377 16 9.51838 16.179 9.08071 16.1986C8.64304 16.2181 8.21334 16.0769 7.87259 15.8016L7.75289 15.6954L5.91419 13.9089L4.54619 12.5598C3.36479 11.3774 2.70117 9.77438 2.70117 8.10296C2.70117 6.43154 3.36479 4.82851 4.54619 3.64616M9.00029 5.85026C8.40355 5.85026 7.83126 6.08731 7.4093 6.50927C6.98734 6.93123 6.75029 7.50352 6.75029 8.10026C6.75029 8.697 6.98734 9.26929 7.4093 9.69125C7.83126 10.1132 8.40355 10.3503 9.00029 10.3503C9.59703 10.3503 10.1693 10.1132 10.5913 9.69125C11.0132 9.26929 11.2503 8.697 11.2503 8.10026C11.2503 7.50352 11.0132 6.93123 10.5913 6.50927C10.1693 6.08731 9.59703 5.85026 9.00029 5.85026Z" fill="black"/>
</svg>
