<svg width="24" height="24" viewBox="0 0 24 24" fill="none" xmlns="http://www.w3.org/2000/svg">
<path d="M21.3302 19.0345C21.2045 19.5975 20.8932 20.1019 20.4462 20.4665C19.9578 20.9618 19.3758 21.3551 18.7341 21.6236C18.0924 21.8921 17.4038 22.0304 16.7082 22.0305H16.3832C14.9232 21.9512 13.4936 21.5817 12.1782 20.9435H12.1682C11.8632 20.8015 11.5482 20.6595 11.2432 20.4865C9.70757 19.6255 8.29909 18.5552 7.05816 17.3065C5.44771 15.7938 4.12616 14.0006 3.15815 12.0145C2.6437 10.926 2.30033 9.76466 2.14016 8.57145C1.90462 7.32246 2.0463 6.03162 2.54715 4.86345C2.86335 4.33643 3.24953 3.85471 3.69515 3.43145C3.89567 3.2047 4.14082 3.02177 4.41526 2.89409C4.68971 2.76642 4.98755 2.69675 5.29015 2.68945C5.61926 2.72582 5.93786 2.8272 6.22746 2.98771C6.51706 3.14822 6.77189 3.36465 6.97716 3.62445C7.43415 4.12145 7.99215 4.63945 8.45015 5.11745L9.08015 5.73745C9.45015 6.06545 9.67916 6.52345 9.72016 7.01745C9.72016 7.47045 9.55315 7.90745 9.25215 8.24645C9.05722 8.48354 8.85028 8.71051 8.63215 8.92645L8.42915 9.13945C8.31115 9.24945 8.22116 9.38545 8.16515 9.53645C8.11515 9.68512 8.09515 9.83745 8.10515 9.99345C8.26615 10.4245 8.51916 10.8165 8.84516 11.1415C9.35416 11.8315 9.86215 12.4315 10.3802 13.0815C11.3171 14.1692 12.4291 15.0929 13.6702 15.8145C13.7972 15.9075 13.9432 15.9695 14.0982 15.9965C14.2322 16.0065 14.3682 15.9865 14.4942 15.9365C14.8492 15.7275 15.1642 15.4595 15.4282 15.1435C15.7832 14.7087 16.2929 14.4284 16.8502 14.3615C17.3864 14.3688 17.898 14.5881 18.2732 14.9715C18.4762 15.1435 18.6992 15.3775 18.9132 15.6015L19.2172 15.9155L19.5322 16.2205L20.0712 16.7685C20.3925 17.0538 20.6938 17.3588 20.9752 17.6835C21.2572 18.0735 21.3842 18.5565 21.3302 19.0345ZM17.6842 12.0755C17.4827 12.0734 17.2901 11.9924 17.1476 11.85C17.0052 11.7075 16.9242 11.5149 16.9222 11.3135C16.9232 10.7382 16.8107 10.1685 16.591 9.63682C16.3714 9.10518 16.049 8.62213 15.6422 8.21539C15.2355 7.80864 14.7524 7.4862 14.2208 7.26656C13.6891 7.04692 13.1194 6.9344 12.5442 6.93545C12.3421 6.93545 12.1482 6.85517 12.0053 6.71227C11.8624 6.56937 11.7822 6.37555 11.7822 6.17345C11.7822 5.97136 11.8624 5.77754 12.0053 5.63464C12.1482 5.49174 12.3421 5.41145 12.5442 5.41145C13.3195 5.41027 14.0876 5.56212 14.8042 5.8583C15.5208 6.15449 16.1719 6.58918 16.7201 7.13747C17.2684 7.68575 17.7031 8.33686 17.9993 9.05345C18.2955 9.77005 18.4473 10.5381 18.4462 11.3135C18.4464 11.4136 18.4269 11.5128 18.3887 11.6054C18.3505 11.6979 18.2944 11.782 18.2236 11.8529C18.1527 11.9237 18.0686 11.9798 17.9761 12.018C17.8835 12.0562 17.7843 12.0757 17.6842 12.0755Z" fill="#209D01"/>
<path d="M21.2088 11.7203C21.0075 11.7182 20.815 11.6374 20.6726 11.4951C20.5302 11.3529 20.4491 11.1605 20.4468 10.9592C20.4483 9.97915 20.2567 9.00836 19.8826 8.10243C19.5086 7.1965 18.9597 6.3732 18.2671 5.67966C17.5746 4.98611 16.7521 4.43593 15.8468 4.06059C14.9414 3.68525 13.9709 3.49212 12.9908 3.49225C12.8884 3.49596 12.7864 3.47901 12.6908 3.44241C12.5952 3.40581 12.5079 3.35031 12.4342 3.27924C12.3605 3.20816 12.3019 3.12296 12.2618 3.02872C12.2218 2.93448 12.2012 2.83314 12.2012 2.73075C12.2012 2.62836 12.2218 2.52702 12.2618 2.43278C12.3019 2.33854 12.3605 2.25334 12.4342 2.18226C12.5079 2.11119 12.5952 2.05569 12.6908 2.01909C12.7864 1.98249 12.8884 1.96554 12.9908 1.96925C14.1709 1.96925 15.3394 2.20185 16.4296 2.65377C17.5197 3.10568 18.5101 3.76804 19.3441 4.60297C20.1781 5.4379 20.8394 6.42902 21.2901 7.51968C21.7408 8.61034 21.9721 9.77914 21.9708 10.9592C21.971 11.0594 21.9515 11.1586 21.9133 11.2512C21.8751 11.3437 21.819 11.4278 21.7482 11.4987C21.6774 11.5695 21.5933 11.6256 21.5007 11.6638C21.4081 11.702 21.3089 11.7205 21.2088 11.7203Z" fill="#209D01"/>
</svg>
