<svg width="15" height="15" viewBox="0 0 15 15" fill="none" xmlns="http://www.w3.org/2000/svg">
<g clip-path="url(#clip0_16036_69944)">
<path d="M2.44141 8.54639H3.90338C4.08285 8.54639 4.25988 8.58668 4.42042 8.66481L5.66692 9.26791C5.82746 9.34544 6.00448 9.38573 6.18456 9.38573H6.82063C7.43594 9.38573 7.93527 9.86858 7.93527 10.4644C7.93527 10.4888 7.91879 10.5095 7.89498 10.5162L6.34388 10.9454C6.06556 11.0223 5.76878 10.9954 5.50881 10.8697L4.17625 10.2251" stroke="#222222" stroke-width="0.813906" stroke-linecap="round" stroke-linejoin="round"/>
<path d="M7.93527 10.0724L10.739 9.2111C10.9831 9.13621 11.2446 9.14033 11.4862 9.22287C11.7278 9.30541 11.9371 9.46217 12.0844 9.67076C12.3096 9.98208 12.218 10.4289 11.8896 10.6181L7.30226 13.2656C7.15881 13.3486 6.99998 13.4015 6.83542 13.4211C6.67087 13.4407 6.50404 13.4267 6.3451 13.3797L2.44141 12.2211M7.93527 3.05248H9.15613M9.15613 7.32549H7.93527C6.784 7.32549 6.20898 7.32549 5.85127 6.96777C5.49355 6.61006 5.49355 6.03504 5.49355 4.88377V3.66291C5.49355 2.51164 5.49355 1.93661 5.85127 1.5789C6.20898 1.22119 6.784 1.22119 7.93527 1.22119H9.15613C10.3074 1.22119 10.8824 1.22119 11.2401 1.5789C11.5978 1.93661 11.5978 2.51164 11.5978 3.66291V4.88377C11.5978 6.03504 11.5978 6.61006 11.2401 6.96777C10.8824 7.32549 10.3074 7.32549 9.15613 7.32549Z" stroke="#222222" stroke-width="0.813906" stroke-linecap="round" stroke-linejoin="round"/>
</g>
<defs>
<clipPath id="clip0_16036_69944">
<rect width="14.6503" height="14.6503" fill="white"/>
</clipPath>
</defs>
</svg>
