<svg width="47" height="47" viewBox="0 0 47 47" fill="none" xmlns="http://www.w3.org/2000/svg">
<path d="M22.8669 0.265675C23.0549 -0.0884406 23.5623 -0.0884417 23.7502 0.265674L26.6714 5.76933C26.8173 6.04419 27.1761 6.12045 27.4212 5.9287L32.3284 2.08901C32.6441 1.84196 33.1076 2.04833 33.1353 2.44828L33.5654 8.66428C33.5869 8.9747 33.8837 9.19032 34.1855 9.11482L40.2302 7.60302C40.6191 7.50575 40.9586 7.88281 40.8212 8.25943L38.6859 14.113C38.5792 14.4053 38.7627 14.723 39.0691 14.7768L45.2061 15.8543C45.601 15.9236 45.7578 16.4062 45.4791 16.6943L41.1475 21.1733C40.9312 21.397 40.9695 21.7618 41.2276 21.9356L46.3958 25.4161C46.7283 25.64 46.6753 26.1446 46.3034 26.2945L40.5246 28.6244C40.236 28.7408 40.1226 29.0897 40.2877 29.3534L43.5934 34.6351C43.8061 34.9749 43.5524 35.4143 43.1518 35.4L36.9249 35.178C36.6139 35.1669 36.3684 35.4395 36.412 35.7477L37.2837 41.9172C37.3397 42.3142 36.9293 42.6124 36.5691 42.4364L30.9708 39.7009C30.6912 39.5643 30.3561 39.7135 30.2705 40.0127L28.5575 46.0034C28.4472 46.3889 27.951 46.4944 27.6935 46.1871L23.6919 41.411C23.492 41.1725 23.1252 41.1725 22.9253 41.411L18.9237 46.1871C18.6662 46.4944 18.1699 46.3889 18.0597 46.0034L16.3466 40.0127C16.2611 39.7135 15.926 39.5643 15.6464 39.7009L10.0481 42.4364C9.68793 42.6124 9.27745 42.3142 9.33353 41.9172L10.2052 35.7477C10.2487 35.4395 10.0033 35.1669 9.69231 35.178L3.46541 35.4C3.06476 35.4143 2.81107 34.9749 3.02377 34.6351L6.32948 29.3534C6.49457 29.0897 6.38121 28.7408 6.09261 28.6244L0.313757 26.2945C-0.058066 26.1446 -0.111103 25.64 0.221427 25.4161L5.38959 21.9356C5.64768 21.7618 5.68603 21.397 5.46971 21.1733L1.13812 16.6943C0.859415 16.4062 1.0162 15.9236 1.41107 15.8543L7.54806 14.7768C7.85454 14.723 8.03795 14.4053 7.93131 14.113L5.79596 8.25943C5.65856 7.88281 5.99807 7.50575 6.38699 7.60302L12.4317 9.11482C12.7335 9.19032 13.0303 8.9747 13.0518 8.66428L13.4819 2.44828C13.5096 2.04833 13.9731 1.84196 14.2888 2.08901L19.196 5.9287C19.4411 6.12045 19.7999 6.04419 19.9458 5.76933L22.8669 0.265675Z" fill="white" fill-opacity="0.1"/>
</svg>
