<svg width="20" height="20" viewBox="0 0 20 20" fill="none" xmlns="http://www.w3.org/2000/svg">
<path d="M16.5 10C16.5 6.40938 13.5906 3.5 10 3.5C6.40938 3.5 3.5 6.40938 3.5 10C3.5 13.5906 6.40938 16.5 10 16.5C13.5906 16.5 16.5 13.5906 16.5 10ZM2 10C2 5.58125 5.58125 2 10 2C14.4187 2 18 5.58125 18 10C18 14.4187 14.4187 18 10 18C5.58125 18 2 14.4187 2 10ZM7.5 7.5C8.05312 7.5 8.5 7.94688 8.5 8.5C8.5 9.05312 8.05312 9.5 7.5 9.5C6.94688 9.5 6.5 9.05312 6.5 8.5C6.5 7.94688 6.94688 7.5 7.5 7.5ZM11.5 8.5C11.5 7.94688 11.9469 7.5 12.5 7.5C13.0531 7.5 13.5 7.94688 13.5 8.5C13.5 9.05312 13.0531 9.5 12.5 9.5C11.9469 9.5 11.5 9.05312 11.5 8.5ZM10 11C11.1031 11 12 11.8969 12 13C12 14.1031 11.1031 15 10 15C8.89687 15 8 14.1031 8 13C8 11.8969 8.89687 11 10 11Z" fill="white"/>
</svg>
