<svg width="28" height="28" viewBox="0 0 28 28" fill="none" xmlns="http://www.w3.org/2000/svg">
<path fill-rule="evenodd" clip-rule="evenodd" d="M7.314 0.95C9.462 0.71 11.704 0.5 14 0.5C16.296 0.5 18.538 0.71 20.686 0.95C22.3186 1.1372 23.8394 1.87274 24.9998 3.03637C26.1601 4.2 26.8914 5.72287 27.074 7.356C27.304 9.494 27.5 11.72 27.5 14C27.5 16.28 27.304 18.506 27.074 20.644C26.8914 22.2771 26.1601 23.8 24.9998 24.9636C23.8394 26.1273 22.3186 26.8628 20.686 27.05C18.538 27.29 16.296 27.5 14 27.5C11.704 27.5 9.462 27.29 7.314 27.05C5.68139 26.8628 4.16058 26.1273 3.00023 24.9636C1.83987 23.8 1.10861 22.2771 0.926 20.644C0.696 18.506 0.5 16.28 0.5 14C0.5 11.72 0.696 9.494 0.926 7.356C1.10861 5.72287 1.83987 4.2 3.00023 3.03637C4.16058 1.87274 5.68139 1.1372 7.314 0.95ZM16.664 5.764C16.595 5.46475 16.4182 5.20138 16.1673 5.02416C15.9165 4.84693 15.6092 4.76824 15.3041 4.80311C14.999 4.83797 14.7173 4.98395 14.513 5.21319C14.3086 5.44243 14.1958 5.73888 14.196 6.046V17.6C14.196 18.2139 14.014 18.814 13.6729 19.3245C13.3318 19.8349 12.847 20.2328 12.2798 20.4677C11.7127 20.7027 11.0886 20.7641 10.4864 20.6444C9.88432 20.5246 9.33124 20.229 8.89714 19.7949C8.46304 19.3608 8.16741 18.8077 8.04764 18.2056C7.92787 17.6034 7.98934 16.9793 8.22428 16.4122C8.45921 15.845 8.85706 15.3602 9.36751 15.0191C9.87796 14.678 10.4781 14.496 11.092 14.496C11.4235 14.496 11.7415 14.3643 11.9759 14.1299C12.2103 13.8955 12.342 13.5775 12.342 13.246C12.342 12.9145 12.2103 12.5965 11.9759 12.3621C11.7415 12.1277 11.4235 11.996 11.092 11.996C9.98363 11.996 8.90016 12.3247 7.97858 12.9404C7.05701 13.5562 6.33873 14.4314 5.91458 15.4554C5.49043 16.4794 5.37945 17.6062 5.59568 18.6933C5.81191 19.7804 6.34564 20.7789 7.12937 21.5626C7.91311 22.3464 8.91164 22.8801 9.99871 23.0963C11.0858 23.3126 12.2126 23.2016 13.2366 22.7774C14.2606 22.3533 15.1358 21.635 15.7516 20.7134C16.3673 19.7918 16.696 18.7084 16.696 17.6V10.62C17.896 11.64 19.444 12.2 21.26 12.2C21.5915 12.2 21.9095 12.0683 22.1439 11.8339C22.3783 11.5995 22.51 11.2815 22.51 10.95C22.51 10.6185 22.3783 10.3005 22.1439 10.0661C21.9095 9.8317 21.5915 9.7 21.26 9.7C19.94 9.7 18.96 9.292 18.238 8.65C17.502 7.994 16.956 7.018 16.664 5.764Z" fill="black"/>
</svg>
