<svg width="15" height="15" viewBox="0 0 15 15" fill="none" xmlns="http://www.w3.org/2000/svg">
<path d="M8.84681 5.05364L8.65456 10.0545M5.99411 10.0545L5.80186 5.05364M11.3406 3.27001C11.5302 3.2989 11.7195 3.32965 11.9084 3.36225M11.3406 3.27001L10.7471 10.9841C10.7229 11.2981 10.581 11.5915 10.3499 11.8055C10.1187 12.0194 9.81526 12.1383 9.50026 12.1382H5.14842C4.83342 12.1383 4.52999 12.0194 4.29882 11.8055C4.06764 11.5915 3.92576 11.2981 3.90154 10.9841L3.30811 3.27001M11.3406 3.27001C10.6993 3.17301 10.0547 3.09943 9.40802 3.04942M3.30811 3.27001C3.11845 3.29853 2.92915 3.32909 2.74023 3.36169M3.30811 3.27001C3.94939 3.17301 4.594 3.09943 5.24065 3.04942M9.40802 3.04942V2.54044C9.40802 1.88478 8.90238 1.33802 8.24671 1.31746C7.63195 1.29783 7.01672 1.29783 6.40196 1.31746C5.74629 1.33802 5.24065 1.88533 5.24065 2.54044V3.04942M9.40802 3.04942C8.02094 2.94295 6.62774 2.94295 5.24065 3.04942" stroke="black" stroke-width="0.976687" stroke-linecap="round" stroke-linejoin="round"/>
</svg>
