<svg width="106" height="39" viewBox="0 0 106 39" fill="none" xmlns="http://www.w3.org/2000/svg">
<path d="M31.9554 16.241C31.9554 16.561 31.9354 16.8943 31.8954 17.241H24.1554C24.2088 17.9343 24.4288 18.4677 24.8154 18.841C25.2154 19.201 25.7021 19.381 26.2754 19.381C27.1288 19.381 27.7221 19.021 28.0554 18.301H31.6954C31.5087 19.0343 31.1687 19.6943 30.6754 20.281C30.1954 20.8676 29.5887 21.3276 28.8554 21.661C28.1221 21.9943 27.3021 22.161 26.3954 22.161C25.3021 22.161 24.3288 21.9276 23.4754 21.461C22.6221 20.9943 21.9554 20.3276 21.4754 19.461C20.9954 18.5943 20.7554 17.581 20.7554 16.421C20.7554 15.261 20.9888 14.2477 21.4554 13.381C21.9354 12.5143 22.6021 11.8477 23.4554 11.381C24.3088 10.9143 25.2888 10.681 26.3954 10.681C27.4754 10.681 28.4354 10.9077 29.2754 11.361C30.1154 11.8143 30.7687 12.461 31.2354 13.301C31.7154 14.141 31.9554 15.121 31.9554 16.241ZM28.4554 15.341C28.4554 14.7543 28.2554 14.2877 27.8554 13.941C27.4554 13.5943 26.9554 13.421 26.3554 13.421C25.7821 13.421 25.2954 13.5877 24.8954 13.921C24.5088 14.2543 24.2688 14.7277 24.1754 15.341H28.4554ZM39.9796 19.101V22.001H38.2396C36.9996 22.001 36.0329 21.701 35.3396 21.101C34.6463 20.4876 34.2996 19.4943 34.2996 18.121V13.681H32.9396V10.841H34.2996V8.12102H37.7196V10.841H39.9596V13.681H37.7196V18.161C37.7196 18.4943 37.7996 18.7343 37.9596 18.881C38.1196 19.0277 38.3863 19.101 38.7596 19.101H39.9796ZM41.2046 16.401C41.2046 15.2543 41.4179 14.2477 41.8446 13.381C42.2846 12.5143 42.8779 11.8477 43.6246 11.381C44.3713 10.9143 45.2046 10.681 46.1246 10.681C46.9112 10.681 47.5979 10.841 48.1846 11.161C48.7846 11.481 49.2446 11.901 49.5646 12.421V10.841H52.9846V22.001H49.5646V20.421C49.2312 20.941 48.7646 21.361 48.1646 21.681C47.5779 22.001 46.8912 22.161 46.1046 22.161C45.1979 22.161 44.3713 21.9276 43.6246 21.461C42.8779 20.981 42.2846 20.3076 41.8446 19.441C41.4179 18.561 41.2046 17.5477 41.2046 16.401ZM49.5646 16.421C49.5646 15.5677 49.3246 14.8943 48.8446 14.401C48.3779 13.9077 47.8046 13.661 47.1246 13.661C46.4446 13.661 45.8646 13.9077 45.3846 14.401C44.9179 14.881 44.6846 15.5477 44.6846 16.401C44.6846 17.2543 44.9179 17.9343 45.3846 18.441C45.8646 18.9343 46.4446 19.181 47.1246 19.181C47.8046 19.181 48.3779 18.9343 48.8446 18.441C49.3246 17.9477 49.5646 17.2743 49.5646 16.421ZM69.6987 10.721C71.0854 10.721 72.1854 11.141 72.9987 11.981C73.8254 12.821 74.2387 13.9877 74.2387 15.481V22.001H70.8387V15.941C70.8387 15.221 70.6454 14.6677 70.2587 14.281C69.8854 13.881 69.3654 13.681 68.6987 13.681C68.0321 13.681 67.5054 13.881 67.1187 14.281C66.7454 14.6677 66.5587 15.221 66.5587 15.941V22.001H63.1588V15.941C63.1588 15.221 62.9654 14.6677 62.5788 14.281C62.2054 13.881 61.6854 13.681 61.0188 13.681C60.3521 13.681 59.8254 13.881 59.4388 14.281C59.0654 14.6677 58.8788 15.221 58.8788 15.941V22.001H55.4588V10.841H58.8788V12.241C59.2254 11.7743 59.6788 11.4077 60.2388 11.141C60.7988 10.861 61.4321 10.721 62.1388 10.721C62.9788 10.721 63.7254 10.901 64.3788 11.261C65.0454 11.621 65.5654 12.1343 65.9387 12.801C66.3254 12.1877 66.8521 11.6877 67.5187 11.301C68.1854 10.9143 68.9121 10.721 69.6987 10.721ZM87.1506 16.241C87.1506 16.561 87.1306 16.8943 87.0906 17.241H79.3506C79.4039 17.9343 79.6239 18.4677 80.0106 18.841C80.4106 19.201 80.8972 19.381 81.4706 19.381C82.3239 19.381 82.9172 19.021 83.2506 18.301H86.8906C86.7039 19.0343 86.3639 19.6943 85.8706 20.281C85.3906 20.8676 84.7839 21.3276 84.0506 21.661C83.3172 21.9943 82.4972 22.161 81.5906 22.161C80.4972 22.161 79.5239 21.9276 78.6706 21.461C77.8173 20.9943 77.1506 20.3276 76.6706 19.461C76.1906 18.5943 75.9506 17.581 75.9506 16.421C75.9506 15.261 76.1839 14.2477 76.6506 13.381C77.1306 12.5143 77.7973 11.8477 78.6506 11.381C79.5039 10.9143 80.4839 10.681 81.5906 10.681C82.6706 10.681 83.6306 10.9077 84.4706 11.361C85.3106 11.8143 85.9639 12.461 86.4306 13.301C86.9106 14.141 87.1506 15.121 87.1506 16.241ZM83.6506 15.341C83.6506 14.7543 83.4506 14.2877 83.0506 13.941C82.6506 13.5943 82.1506 13.421 81.5506 13.421C80.9772 13.421 80.4906 13.5877 80.0906 13.921C79.7039 14.2543 79.4639 14.7277 79.3706 15.341H83.6506ZM88.2748 16.401C88.2748 15.2543 88.4881 14.2477 88.9148 13.381C89.3548 12.5143 89.9481 11.8477 90.6948 11.381C91.4414 10.9143 92.2748 10.681 93.1948 10.681C93.9814 10.681 94.6681 10.841 95.2548 11.161C95.8548 11.481 96.3148 11.901 96.6347 12.421V10.841H100.055V22.001H96.6347V20.421C96.3014 20.941 95.8348 21.361 95.2348 21.681C94.6481 22.001 93.9614 22.161 93.1748 22.161C92.2681 22.161 91.4414 21.9276 90.6948 21.461C89.9481 20.981 89.3548 20.3076 88.9148 19.441C88.4881 18.561 88.2748 17.5477 88.2748 16.401ZM96.6347 16.421C96.6347 15.5677 96.3947 14.8943 95.9148 14.401C95.4481 13.9077 94.8748 13.661 94.1948 13.661C93.5148 13.661 92.9348 13.9077 92.4548 14.401C91.9881 14.881 91.7548 15.5477 91.7548 16.401C91.7548 17.2543 91.9881 17.9343 92.4548 18.441C92.9348 18.9343 93.5148 19.181 94.1948 19.181C94.8748 19.181 95.4481 18.9343 95.9148 18.441C96.3947 17.9477 96.6347 17.2743 96.6347 16.421ZM105.949 7.20102V22.001H102.529V7.20102H105.949Z" fill="black"/>
<circle cx="13.0668" cy="34.4789" r="0.0492603" fill="#D9D9D9"/>
<path d="M19.8738 17.4374C19.8738 22.9254 15.4249 27.3742 9.93688 27.3742C4.44889 27.3742 0 22.9254 0 17.4374C0 11.9494 4.44889 7.50049 9.93688 7.50049C15.4249 7.50049 19.8738 11.9494 19.8738 17.4374ZM4.69436 17.4374C4.69436 20.3327 7.04151 22.6799 9.93688 22.6799C12.8322 22.6799 15.1794 20.3327 15.1794 17.4374C15.1794 14.542 12.8322 12.1948 9.93688 12.1948C7.04151 12.1948 4.69436 14.542 4.69436 17.4374Z" fill="black"/>
<path d="M19.8738 29.0633C19.8738 31.6988 18.8268 34.2263 16.9633 36.0898C15.0998 37.9533 12.5723 39.0002 9.93688 39.0002C7.30146 39.0002 4.77397 37.9533 2.91044 36.0898C1.04692 34.2263 3.97938e-07 31.6988 0 29.0633L9.93688 29.0633H19.8738Z" fill="black"/>
<g clip-path="url(#clip0_16014_28336)">
<path d="M19.8298 6.76514C20.986 6.77636 22.004 8.36381 20.3727 8.74063C17.5311 9.3974 15.3145 11.0968 13.5878 13.7512C13.3634 14.1973 13.1937 14.6406 13.2786 15.0866C13.399 15.5217 13.4236 15.9623 13.3661 16.3427C13.2539 17.0268 12.9146 17.7712 12.3317 18.406C11.7516 19.0409 11.0483 19.4404 10.3779 19.6101C9.70741 19.777 9.03696 19.7278 8.58817 19.3173C8.13664 18.9041 8.07917 18.2719 8.23516 17.6289C8.39114 16.9858 8.78246 16.2934 9.35713 15.6668C9.9318 15.0374 10.5858 14.5858 11.2125 14.3724C11.4369 14.2958 11.664 14.2465 11.8802 14.2356C12.2524 14.0851 12.526 13.7676 12.7723 13.4009C14.2938 10.4427 16.5542 8.50912 19.1895 6.93891C19.398 6.83519 19.6311 6.76514 19.8298 6.76514ZM12.8462 15.3986C12.173 17.0898 10.8403 18.4307 9.35439 19.1613C9.58426 19.2024 9.8716 19.1914 10.1836 19.1148C10.7582 18.9698 11.4013 18.614 11.9295 18.0393C12.4576 17.4619 12.7696 16.7696 12.8654 16.1812C12.8927 15.9158 12.9009 15.6312 12.8462 15.3986Z" fill="black"/>
</g>
<defs>
<clipPath id="clip0_16014_28336">
<rect width="14.011" height="14.011" fill="white" transform="matrix(-1 0 0 1 21.6621 6.20898)"/>
</clipPath>
</defs>
</svg>
