<svg width="20" height="20" viewBox="0 0 20 20" fill="none" xmlns="http://www.w3.org/2000/svg">
<path d="M16.0418 8.09922L14.341 2.32344C14.3029 2.19403 14.224 2.08043 14.116 1.99961C14.008 1.91878 13.8767 1.87507 13.7418 1.875H6.259C6.1241 1.87507 5.99285 1.91878 5.88485 1.99961C5.77684 2.08043 5.69789 2.19403 5.65978 2.32344L3.959 8.09922C3.69216 8.98449 3.67819 9.92675 3.91868 10.8195C4.15917 11.7123 4.64453 12.5201 5.31994 13.1516C6.43099 14.1934 7.85848 14.8339 9.37541 14.9711V18.125H6.87541C6.70965 18.125 6.55068 18.1908 6.43347 18.3081C6.31626 18.4253 6.25041 18.5842 6.25041 18.75C6.25041 18.9158 6.31626 19.0747 6.43347 19.1919C6.55068 19.3092 6.70965 19.375 6.87541 19.375H13.1254C13.2912 19.375 13.4501 19.3092 13.5673 19.1919C13.6846 19.0747 13.7504 18.9158 13.7504 18.75C13.7504 18.5842 13.6846 18.4253 13.5673 18.3081C13.4501 18.1908 13.2912 18.125 13.1254 18.125H10.6254V14.9711C12.1423 14.8339 13.5698 14.1934 14.6809 13.1516C15.3563 12.5201 15.8416 11.7123 16.0821 10.8195C16.3226 9.92675 16.3087 8.98449 16.0418 8.09922ZM6.72619 3.125H13.2746L14.8442 8.45234C14.8512 8.47578 14.8574 8.49922 14.8637 8.52266C13.1903 9.12266 11.3059 8.39766 10.2832 7.87969C8.31525 6.88359 6.75275 6.75703 5.60041 6.94766L6.72619 3.125ZM13.8285 12.2383C12.7907 13.2101 11.4222 13.7508 10.0004 13.7508C8.57865 13.7508 7.2101 13.2101 6.17228 12.2383C5.66688 11.7647 5.30395 11.1592 5.12448 10.4902C4.94502 9.82118 4.95616 9.11534 5.15666 8.45234L5.19181 8.33359C6.12931 8.01641 7.61916 7.93203 9.71759 8.99531C10.5887 9.43672 11.9957 9.99922 13.5012 9.99922C14.0044 10.0017 14.5054 9.93333 14.9895 9.79609C14.9257 10.7278 14.5108 11.6006 13.8285 12.2383Z" fill="white"/>
</svg>
